<mxfile host="app.diagrams.net" modified="2024-10-08T11:30:27.652Z" agent="Mozilla/5.0 (Macintosh; Intel Mac OS X 10_15_7) AppleWebKit/537.36 (KHTML, like Gecko) Chrome/129.0.0.0 Safari/537.36" etag="7jzb0E3LGmWHi_A3pbac" version="24.6.5" type="device">
  <diagram name="Page-1" id="J2kVK7LZULOZ50CEEEN-">
    <mxGraphModel dx="1908" dy="1230" grid="1" gridSize="10" guides="1" tooltips="1" connect="1" arrows="1" fold="1" page="1" pageScale="1" pageWidth="850" pageHeight="1100" math="0" shadow="0">
      <root>
        <mxCell id="0" />
        <mxCell id="1" parent="0" />
        <mxCell id="nNqtNZUK64NHDpkSiPCm-13" value="" style="group" vertex="1" connectable="0" parent="1">
          <mxGeometry x="50" y="150" width="230" height="130" as="geometry" />
        </mxCell>
        <mxCell id="nNqtNZUK64NHDpkSiPCm-1" value="" style="verticalLabelPosition=bottom;html=1;verticalAlign=top;align=center;strokeColor=none;fillColor=#000000;shape=mxgraph.azure.github_code;pointerEvents=1;" vertex="1" parent="nNqtNZUK64NHDpkSiPCm-13">
          <mxGeometry x="60" width="80" height="90" as="geometry" />
        </mxCell>
        <mxCell id="nNqtNZUK64NHDpkSiPCm-12" value="Cat with NFC tag B" style="text;strokeColor=none;align=center;fillColor=none;html=1;verticalAlign=middle;whiteSpace=wrap;rounded=0;strokeWidth=2;fontSize=25;fontStyle=1" vertex="1" parent="nNqtNZUK64NHDpkSiPCm-13">
          <mxGeometry y="100" width="230" height="30" as="geometry" />
        </mxCell>
        <mxCell id="nNqtNZUK64NHDpkSiPCm-14" value="" style="group" vertex="1" connectable="0" parent="1">
          <mxGeometry x="50" y="440" width="230" height="160" as="geometry" />
        </mxCell>
        <mxCell id="nNqtNZUK64NHDpkSiPCm-8" value="" style="verticalLabelPosition=bottom;html=1;verticalAlign=top;align=center;strokeColor=none;fillColor=#000000;shape=mxgraph.azure.github_code;pointerEvents=1;" vertex="1" parent="nNqtNZUK64NHDpkSiPCm-14">
          <mxGeometry x="60" width="80" height="90" as="geometry" />
        </mxCell>
        <mxCell id="nNqtNZUK64NHDpkSiPCm-9" value="Cat with NFC tag A" style="text;strokeColor=none;align=center;fillColor=none;html=1;verticalAlign=middle;whiteSpace=wrap;rounded=0;strokeWidth=2;fontSize=25;fontStyle=1" vertex="1" parent="nNqtNZUK64NHDpkSiPCm-14">
          <mxGeometry y="130" width="230" height="30" as="geometry" />
        </mxCell>
        <mxCell id="nNqtNZUK64NHDpkSiPCm-15" value="" style="group" vertex="1" connectable="0" parent="1">
          <mxGeometry x="60" y="700" width="200" height="140" as="geometry" />
        </mxCell>
        <mxCell id="nNqtNZUK64NHDpkSiPCm-3" value="" style="shape=mxgraph.signs.people.woman_1;html=1;pointerEvents=1;fillColor=#000000;strokeColor=none;verticalLabelPosition=bottom;verticalAlign=top;align=center;" vertex="1" parent="nNqtNZUK64NHDpkSiPCm-15">
          <mxGeometry x="76" width="48" height="100" as="geometry" />
        </mxCell>
        <mxCell id="nNqtNZUK64NHDpkSiPCm-6" value="Owner( Cat Lady)" style="text;strokeColor=none;align=center;fillColor=none;html=1;verticalAlign=middle;whiteSpace=wrap;rounded=0;fontSize=21;fontStyle=1" vertex="1" parent="nNqtNZUK64NHDpkSiPCm-15">
          <mxGeometry y="110" width="200" height="30" as="geometry" />
        </mxCell>
        <mxCell id="nNqtNZUK64NHDpkSiPCm-16" value="" style="whiteSpace=wrap;html=1;aspect=fixed;fillColor=none;movable=0;resizable=0;rotatable=0;deletable=0;editable=0;locked=1;connectable=0;" vertex="1" parent="1">
          <mxGeometry x="330" y="20" width="860" height="860" as="geometry" />
        </mxCell>
        <mxCell id="nNqtNZUK64NHDpkSiPCm-17" value="Automatic Cat Food Plate &lt;span class=&quot;hljs-keyword&quot; style=&quot;font-size: 29px;&quot;&gt;System&lt;/span&gt;" style="text;strokeColor=none;align=center;fillColor=none;html=1;verticalAlign=middle;whiteSpace=wrap;rounded=0;fontStyle=1;fontSize=29;" vertex="1" parent="1">
          <mxGeometry x="520" y="50" width="510" height="30" as="geometry" />
        </mxCell>
        <mxCell id="nNqtNZUK64NHDpkSiPCm-27" style="edgeStyle=orthogonalEdgeStyle;rounded=0;orthogonalLoop=1;jettySize=auto;html=1;entryX=0.5;entryY=1;entryDx=0;entryDy=0;" edge="1" parent="1" source="nNqtNZUK64NHDpkSiPCm-18" target="nNqtNZUK64NHDpkSiPCm-20">
          <mxGeometry relative="1" as="geometry">
            <Array as="points">
              <mxPoint x="474" y="340" />
              <mxPoint x="807" y="340" />
            </Array>
          </mxGeometry>
        </mxCell>
        <mxCell id="nNqtNZUK64NHDpkSiPCm-18" value="Detect Cat Presence using NFC Signal" style="ellipse;whiteSpace=wrap;html=1;fontSize=15;" vertex="1" parent="1">
          <mxGeometry x="392.5" y="437.5" width="162.5" height="95" as="geometry" />
        </mxCell>
        <mxCell id="nNqtNZUK64NHDpkSiPCm-25" style="edgeStyle=orthogonalEdgeStyle;rounded=0;orthogonalLoop=1;jettySize=auto;html=1;entryX=0.5;entryY=0;entryDx=0;entryDy=0;endArrow=none;endFill=0;" edge="1" parent="1" source="nNqtNZUK64NHDpkSiPCm-19" target="nNqtNZUK64NHDpkSiPCm-21">
          <mxGeometry relative="1" as="geometry">
            <Array as="points">
              <mxPoint x="473" y="340" />
              <mxPoint x="808" y="340" />
            </Array>
          </mxGeometry>
        </mxCell>
        <mxCell id="nNqtNZUK64NHDpkSiPCm-19" value="Detect Cat Presence using NFC Signal" style="ellipse;whiteSpace=wrap;html=1;fontSize=15;" vertex="1" parent="1">
          <mxGeometry x="390" y="145" width="165" height="100" as="geometry" />
        </mxCell>
        <mxCell id="nNqtNZUK64NHDpkSiPCm-22" style="edgeStyle=orthogonalEdgeStyle;rounded=0;orthogonalLoop=1;jettySize=auto;html=1;exitX=0.5;exitY=1;exitDx=0;exitDy=0;entryX=0.5;entryY=0;entryDx=0;entryDy=0;endArrow=classic;endFill=1;startArrow=classic;startFill=1;" edge="1" parent="1" source="nNqtNZUK64NHDpkSiPCm-20" target="nNqtNZUK64NHDpkSiPCm-21">
          <mxGeometry relative="1" as="geometry" />
        </mxCell>
        <mxCell id="nNqtNZUK64NHDpkSiPCm-20" value="Opens Door for Respective NFC tag" style="ellipse;whiteSpace=wrap;html=1;fontSize=15;" vertex="1" parent="1">
          <mxGeometry x="727.5" y="200" width="160" height="100" as="geometry" />
        </mxCell>
        <mxCell id="nNqtNZUK64NHDpkSiPCm-21" value="Closes door after 5 seconds signal Absence&amp;nbsp;&lt;div style=&quot;font-size: 15px;&quot;&gt;&lt;br style=&quot;font-size: 15px;&quot;&gt;&lt;/div&gt;" style="ellipse;whiteSpace=wrap;html=1;fontSize=15;" vertex="1" parent="1">
          <mxGeometry x="720" y="380" width="175" height="110" as="geometry" />
        </mxCell>
        <mxCell id="nNqtNZUK64NHDpkSiPCm-23" style="edgeStyle=orthogonalEdgeStyle;rounded=0;orthogonalLoop=1;jettySize=auto;html=1;exitX=1;exitY=0.5;exitDx=0;exitDy=0;exitPerimeter=0;entryX=0;entryY=0.5;entryDx=0;entryDy=0;" edge="1" parent="1" source="nNqtNZUK64NHDpkSiPCm-1" target="nNqtNZUK64NHDpkSiPCm-19">
          <mxGeometry relative="1" as="geometry" />
        </mxCell>
        <mxCell id="nNqtNZUK64NHDpkSiPCm-24" style="edgeStyle=orthogonalEdgeStyle;rounded=0;orthogonalLoop=1;jettySize=auto;html=1;entryX=0;entryY=0.5;entryDx=0;entryDy=0;" edge="1" parent="1" source="nNqtNZUK64NHDpkSiPCm-8" target="nNqtNZUK64NHDpkSiPCm-18">
          <mxGeometry relative="1" as="geometry" />
        </mxCell>
        <mxCell id="nNqtNZUK64NHDpkSiPCm-28" value="Adds NFC Configurations&amp;nbsp;&lt;div style=&quot;font-size: 15px;&quot;&gt;&lt;br style=&quot;font-size: 15px;&quot;&gt;&lt;/div&gt;" style="ellipse;whiteSpace=wrap;html=1;fontSize=15;" vertex="1" parent="1">
          <mxGeometry x="435" y="590" width="120" height="80" as="geometry" />
        </mxCell>
        <mxCell id="nNqtNZUK64NHDpkSiPCm-29" value="Loads and Unloads Food&amp;nbsp;" style="ellipse;whiteSpace=wrap;html=1;fontSize=15;" vertex="1" parent="1">
          <mxGeometry x="435" y="790" width="120" height="80" as="geometry" />
        </mxCell>
        <mxCell id="nNqtNZUK64NHDpkSiPCm-30" style="edgeStyle=orthogonalEdgeStyle;rounded=0;orthogonalLoop=1;jettySize=auto;html=1;exitX=0.97;exitY=0.5;exitDx=0;exitDy=0;exitPerimeter=0;entryX=0.5;entryY=1;entryDx=0;entryDy=0;" edge="1" parent="1" source="nNqtNZUK64NHDpkSiPCm-3" target="nNqtNZUK64NHDpkSiPCm-28">
          <mxGeometry relative="1" as="geometry" />
        </mxCell>
        <mxCell id="nNqtNZUK64NHDpkSiPCm-31" style="edgeStyle=orthogonalEdgeStyle;rounded=0;orthogonalLoop=1;jettySize=auto;html=1;entryX=0.5;entryY=0;entryDx=0;entryDy=0;" edge="1" parent="1" source="nNqtNZUK64NHDpkSiPCm-3" target="nNqtNZUK64NHDpkSiPCm-29">
          <mxGeometry relative="1" as="geometry" />
        </mxCell>
      </root>
    </mxGraphModel>
  </diagram>
</mxfile>
